<svg width="21" height="21" viewBox="0 0 21 21" fill="none" xmlns="http://www.w3.org/2000/svg">
<path d="M18.6567 3.42969H2.00284C1.64854 3.42969 1.3623 3.71593 1.3623 4.07022V16.8809C1.3623 17.2352 1.64854 17.5215 2.00284 17.5215H18.6567C19.011 17.5215 19.2973 17.2352 19.2973 16.8809V4.07022C19.2973 3.71593 19.011 3.42969 18.6567 3.42969ZM17.8561 5.64754V16.0803H2.80351V5.64754L2.25105 5.21718L3.0377 4.20634L3.89442 4.87289H16.7672L17.6239 4.20634L18.4105 5.21718L17.8561 5.64754V5.64754ZM16.7672 4.87089L10.3298 9.87507L3.89242 4.87089L3.0357 4.20433L2.24905 5.21518L2.80151 5.64554L9.63922 10.962C9.83586 11.1147 10.0778 11.1977 10.3268 11.1977C10.5758 11.1977 10.8177 11.1147 11.0144 10.962L17.8561 5.64754L18.4085 5.21718L17.6219 4.20634L16.7672 4.87089Z" fill="#0000AC"/>
</svg>
