<svg width="21" height="22" viewBox="0 0 21 22" fill="none" xmlns="http://www.w3.org/2000/svg">
<g clip-path="url(#clip0_2494_810)">
<path d="M1.78906 5.02328C1.78906 4.57026 1.96902 4.1358 2.28935 3.81547C2.60968 3.49514 3.04414 3.31519 3.49716 3.31519H8.62144V18.688H3.49716C3.04414 18.688 2.60968 18.5081 2.28935 18.1877C1.96902 17.8674 1.78906 17.4329 1.78906 16.9799V5.02328ZM12.0376 3.31519H17.1619C17.6149 3.31519 18.0494 3.49514 18.3697 3.81547C18.69 4.1358 18.87 4.57026 18.87 5.02328V9.29351H12.0376V3.31519ZM12.0376 12.7097H18.87V16.9799C18.87 17.4329 18.69 17.8674 18.3697 18.1877C18.0494 18.5081 17.6149 18.688 17.1619 18.688H12.0376V12.7097Z" stroke="#828282" stroke-width="2.13512" stroke-linecap="round" stroke-linejoin="round"/>
</g>
<defs>
<clipPath id="clip0_2494_810">
<rect width="20.4971" height="20.4971" fill="white" transform="translate(0.0810547 0.75293)"/>
</clipPath>
</defs>
</svg>
