<svg width="21" height="21" viewBox="0 0 21 21" fill="none" xmlns="http://www.w3.org/2000/svg">
<path d="M4.35165 18.7789H16.3083C17.2503 18.7789 18.0164 18.0129 18.0164 17.0708V4.26014C18.0164 3.31812 17.2503 2.55204 16.3083 2.55204H14.6002C14.6002 2.32554 14.5102 2.10831 14.3501 1.94814C14.1899 1.78798 13.9727 1.698 13.7462 1.698H6.91379C6.68728 1.698 6.47005 1.78798 6.30989 1.94814C6.14972 2.10831 6.05974 2.32554 6.05974 2.55204H4.35165C3.40963 2.55204 2.64355 3.31812 2.64355 4.26014V17.0708C2.64355 18.0129 3.40963 18.7789 4.35165 18.7789ZM4.35165 4.26014H6.05974V5.96823H14.6002V4.26014H16.3083V17.0708H4.35165V4.26014Z" fill="#828282"/>
<path d="M9.47526 11.5929L7.94395 10.0616L6.73633 11.2692L9.47526 14.0082L13.9223 9.56114L12.7147 8.35352L9.47526 11.5929Z" fill="#828282"/>
</svg>
