<svg width="26" height="26" viewBox="0 0 26 26" fill="none" xmlns="http://www.w3.org/2000/svg">
<path d="M6.44957 2.4646H16.0576C16.6239 2.4646 17.1669 2.68955 17.5673 3.08996C17.9678 3.49037 18.1927 4.03345 18.1927 4.59972V6.73483H16.0576V4.59972H6.44957V21.6806H16.0576V19.5455H18.1927V21.6806C18.1927 22.2469 17.9678 22.79 17.5673 23.1904C17.1669 23.5908 16.6239 23.8158 16.0576 23.8158H6.44957C5.8833 23.8158 5.34023 23.5908 4.93981 23.1904C4.5394 22.79 4.31445 22.2469 4.31445 21.6806V4.59972C4.31445 4.03345 4.5394 3.49037 4.93981 3.08996C5.34023 2.68955 5.8833 2.4646 6.44957 2.4646V2.4646Z" fill="#828282"/>
<path d="M17.2213 16.9728L18.7266 18.4781L24.0644 13.1403L18.7266 7.80249L17.2213 9.30775L19.9756 12.0727H9.65234V14.2078H19.9756L17.2213 16.9728Z" fill="#828282"/>
</svg>
