<svg width="21" height="22" viewBox="0 0 21 22" fill="none" xmlns="http://www.w3.org/2000/svg">
<path d="M16.3079 4.28768H14.5998V3.43364C14.5998 3.20713 14.5098 2.9899 14.3496 2.82973C14.1895 2.66957 13.9722 2.57959 13.7457 2.57959C13.5192 2.57959 13.302 2.66957 13.1418 2.82973C12.9816 2.9899 12.8917 3.20713 12.8917 3.43364V4.28768H7.76739V3.43364C7.76739 3.20713 7.67741 2.9899 7.51724 2.82973C7.35708 2.66957 7.13985 2.57959 6.91334 2.57959C6.68684 2.57959 6.46961 2.66957 6.30944 2.82973C6.14928 2.9899 6.0593 3.20713 6.0593 3.43364V4.28768H4.3512C3.67168 4.28768 3.01999 4.55762 2.5395 5.03812C2.059 5.51861 1.78906 6.1703 1.78906 6.84982V17.0984C1.78906 17.7779 2.059 18.4296 2.5395 18.9101C3.01999 19.3906 3.67168 19.6605 4.3512 19.6605H16.3079C16.9874 19.6605 17.6391 19.3906 18.1196 18.9101C18.6001 18.4296 18.87 17.7779 18.87 17.0984V6.84982C18.87 6.1703 18.6001 5.51861 18.1196 5.03812C17.6391 4.55762 16.9874 4.28768 16.3079 4.28768V4.28768ZM17.1619 17.0984C17.1619 17.3249 17.0719 17.5421 16.9118 17.7023C16.7516 17.8625 16.5344 17.9524 16.3079 17.9524H4.3512C4.1247 17.9524 3.90747 17.8625 3.7473 17.7023C3.58714 17.5421 3.49716 17.3249 3.49716 17.0984V11.1201H17.1619V17.0984ZM17.1619 9.41196H3.49716V6.84982C3.49716 6.62332 3.58714 6.40609 3.7473 6.24592C3.90747 6.08576 4.1247 5.99578 4.3512 5.99578H6.0593V6.84982C6.0593 7.07633 6.14928 7.29356 6.30944 7.45373C6.46961 7.61389 6.68684 7.70387 6.91334 7.70387C7.13985 7.70387 7.35708 7.61389 7.51724 7.45373C7.67741 7.29356 7.76739 7.07633 7.76739 6.84982V5.99578H12.8917V6.84982C12.8917 7.07633 12.9816 7.29356 13.1418 7.45373C13.302 7.61389 13.5192 7.70387 13.7457 7.70387C13.9722 7.70387 14.1895 7.61389 14.3496 7.45373C14.5098 7.29356 14.5998 7.07633 14.5998 6.84982V5.99578H16.3079C16.5344 5.99578 16.7516 6.08576 16.9118 6.24592C17.0719 6.40609 17.1619 6.62332 17.1619 6.84982V9.41196Z" fill="#828282"/>
</svg>
