<svg width="21" height="21" viewBox="0 0 21 21" fill="none" xmlns="http://www.w3.org/2000/svg">
<g clip-path="url(#clip0_2468_826)">
<path d="M19.2971 18.0435C19.2971 18.0435 20.5782 18.0435 20.5782 16.7624C20.5782 15.4814 19.2971 11.6381 14.1728 11.6381C9.04854 11.6381 7.76747 15.4814 7.76747 16.7624C7.76747 18.0435 9.04854 18.0435 9.04854 18.0435H19.2971ZM9.07673 16.7624C9.06726 16.7611 9.05786 16.7594 9.04854 16.7573C9.04983 16.4191 9.26248 15.4378 10.0222 14.5539C10.7293 13.725 11.9719 12.9192 14.1728 12.9192C16.3724 12.9192 17.6151 13.7263 18.3235 14.5539C19.0832 15.4378 19.2945 16.4204 19.2971 16.7573L19.2869 16.7599C19.2809 16.7609 19.2749 16.7617 19.2689 16.7624H9.07673V16.7624ZM14.1728 9.076C14.8523 9.076 15.504 8.80607 15.9845 8.32557C16.465 7.84508 16.735 7.19339 16.735 6.51386C16.735 5.83434 16.465 5.18265 15.9845 4.70216C15.504 4.22166 14.8523 3.95172 14.1728 3.95172C13.4933 3.95172 12.8416 4.22166 12.3611 4.70216C11.8806 5.18265 11.6107 5.83434 11.6107 6.51386C11.6107 7.19339 11.8806 7.84508 12.3611 8.32557C12.8416 8.80607 13.4933 9.076 14.1728 9.076ZM18.016 6.51386C18.016 7.01856 17.9166 7.51832 17.7235 7.9846C17.5303 8.45088 17.2473 8.87455 16.8904 9.23142C16.5335 9.5883 16.1098 9.87139 15.6436 10.0645C15.1773 10.2577 14.6775 10.3571 14.1728 10.3571C13.6681 10.3571 13.1684 10.2577 12.7021 10.0645C12.2358 9.87139 11.8121 9.5883 11.4553 9.23142C11.0984 8.87455 10.8153 8.45088 10.6222 7.9846C10.429 7.51832 10.3296 7.01856 10.3296 6.51386C10.3296 5.49458 10.7345 4.51705 11.4553 3.7963C12.176 3.07556 13.1535 2.67065 14.1728 2.67065C15.1921 2.67065 16.1696 3.07556 16.8904 3.7963C17.6111 4.51705 18.016 5.49458 18.016 6.51386V6.51386ZM8.96656 11.9968C8.4541 11.8355 7.92586 11.7294 7.39084 11.6804C7.09021 11.6518 6.78839 11.6377 6.4864 11.6381C1.36212 11.6381 0.0810547 15.4814 0.0810547 16.7624C0.0810547 17.6169 0.507651 18.0435 1.36212 18.0435H6.76312C6.5732 17.6436 6.47849 17.2051 6.4864 16.7624C6.4864 15.4685 6.96937 14.1465 7.88277 13.0422C8.19407 12.6656 8.55661 12.3133 8.96656 11.9968ZM6.38392 12.9192C5.62572 14.0584 5.21615 15.394 5.20533 16.7624H1.36212C1.36212 16.4293 1.57222 15.4429 2.33574 14.5539C3.03392 13.7391 4.24709 12.9448 6.38392 12.9205V12.9192ZM2.00266 7.1544C2.00266 6.13512 2.40757 5.15758 3.12831 4.43684C3.84905 3.7161 4.82659 3.31119 5.84587 3.31119C6.86515 3.31119 7.84269 3.7161 8.56343 4.43684C9.28417 5.15758 9.68908 6.13512 9.68908 7.1544C9.68908 8.17368 9.28417 9.15122 8.56343 9.87196C7.84269 10.5927 6.86515 10.9976 5.84587 10.9976C4.82659 10.9976 3.84905 10.5927 3.12831 9.87196C2.40757 9.15122 2.00266 8.17368 2.00266 7.1544V7.1544ZM5.84587 4.59226C5.16635 4.59226 4.51466 4.8622 4.03416 5.34269C3.55367 5.82319 3.28373 6.47488 3.28373 7.1544C3.28373 7.83392 3.55367 8.48561 4.03416 8.96611C4.51466 9.4466 5.16635 9.71654 5.84587 9.71654C6.52539 9.71654 7.17708 9.4466 7.65758 8.96611C8.13807 8.48561 8.40801 7.83392 8.40801 7.1544C8.40801 6.47488 8.13807 5.82319 7.65758 5.34269C7.17708 4.8622 6.52539 4.59226 5.84587 4.59226Z" fill="#828282"/>
</g>
<defs>
<clipPath id="clip0_2468_826">
<rect width="20.4971" height="20.4971" fill="white" transform="translate(0.0810547 0.108398)"/>
</clipPath>
</defs>
</svg>
