<svg width="21" height="21" viewBox="0 0 21 21" fill="none" xmlns="http://www.w3.org/2000/svg">
<path d="M18.5919 12.6043L17.2808 11.4834C17.3428 11.103 17.3749 10.7147 17.3749 10.3264C17.3749 9.93808 17.3428 9.54975 17.2808 9.16943L18.5919 8.0485C18.6908 7.96384 18.7616 7.85109 18.7948 7.72523C18.8281 7.59937 18.8222 7.46637 18.778 7.34391L18.76 7.29187C18.3991 6.28308 17.8586 5.34791 17.1647 4.53156L17.1287 4.48953C17.0445 4.39055 16.9323 4.3194 16.8069 4.28545C16.6815 4.2515 16.5487 4.25636 16.4261 4.29937L14.7987 4.87785C14.1982 4.38544 13.5277 3.99711 12.8031 3.72489L12.4888 2.02347C12.4651 1.89544 12.403 1.77767 12.3107 1.68578C12.2185 1.59389 12.1005 1.53225 11.9724 1.50904L11.9183 1.49903C10.8754 1.31087 9.77853 1.31087 8.73566 1.49903L8.68161 1.50904C8.5535 1.53225 8.43548 1.59389 8.34324 1.68578C8.25099 1.77767 8.18889 1.89544 8.16518 2.02347L7.84892 3.73289C7.13009 4.00518 6.46069 4.3933 5.86726 4.88185L4.22789 4.29937C4.10532 4.25601 3.97246 4.25099 3.84696 4.28495C3.72147 4.31892 3.60928 4.39027 3.5253 4.48953L3.48927 4.53156C2.79619 5.34849 2.2558 6.2835 1.89394 7.29187L1.87593 7.34391C1.78585 7.59412 1.85991 7.87435 2.06208 8.0485L3.38919 9.18144C3.32714 9.55776 3.29711 9.94208 3.29711 10.3244C3.29711 10.7087 3.32714 11.093 3.38919 11.4674L2.06208 12.6003C1.96319 12.685 1.89241 12.7977 1.85916 12.9236C1.82591 13.0494 1.83176 13.1824 1.87593 13.3049L1.89394 13.3569C2.25624 14.3658 2.79269 15.2966 3.48927 16.1172L3.5253 16.1593C3.60948 16.2583 3.72168 16.3294 3.8471 16.3633C3.97252 16.3973 4.10528 16.3924 4.22789 16.3494L5.86726 15.7669C6.46376 16.2574 7.13032 16.6457 7.84892 16.9159L8.16518 18.6253C8.18889 18.7534 8.25099 18.8711 8.34324 18.963C8.43548 19.0549 8.5535 19.1166 8.68161 19.1398L8.73566 19.1498C9.78811 19.3389 10.8659 19.3389 11.9183 19.1498L11.9724 19.1398C12.1005 19.1166 12.2185 19.0549 12.3107 18.963C12.403 18.8711 12.4651 18.7534 12.4888 18.6253L12.8031 16.9239C13.5274 16.6524 14.2017 16.2628 14.7987 15.7709L16.4261 16.3494C16.5486 16.3928 16.6815 16.3978 16.807 16.3638C16.9325 16.3299 17.0447 16.2585 17.1287 16.1593L17.1647 16.1172C17.8613 15.2946 18.3977 14.3658 18.76 13.3569L18.778 13.3049C18.8681 13.0587 18.7941 12.7784 18.5919 12.6043V12.6043ZM15.8596 9.40563C15.9096 9.70788 15.9357 10.0181 15.9357 10.3284C15.9357 10.6387 15.9096 10.9489 15.8596 11.2512L15.7275 12.0538L17.2227 13.3329C16.9961 13.8551 16.7099 14.3495 16.37 14.8061L14.5125 14.1476L13.884 14.664C13.4056 15.0564 12.8731 15.3646 12.2966 15.5808L11.534 15.867L11.1757 17.8087C10.6104 17.8727 10.0396 17.8727 9.47427 17.8087L9.11597 15.863L8.35934 15.5728C7.78887 15.3566 7.25842 15.0483 6.78403 14.658L6.1555 14.1396L4.28594 14.8041C3.94566 14.3458 3.66142 13.8513 3.43323 13.3309L4.94449 12.0398L4.81438 11.2392C4.76634 10.9409 4.74032 10.6327 4.74032 10.3284C4.74032 10.0221 4.76434 9.71589 4.81438 9.41764L4.94449 8.61697L3.43323 7.32589C3.65942 6.80346 3.94566 6.31105 4.28594 5.85266L6.1555 6.51722L6.78403 5.99879C7.25842 5.60846 7.78887 5.3002 8.35934 5.08402L9.11798 4.79778L9.47627 2.85216C10.0387 2.7881 10.6132 2.7881 11.1777 2.85216L11.536 4.79378L12.2986 5.08002C12.8731 5.2962 13.4076 5.60446 13.886 5.99678L14.5145 6.51322L16.372 5.85467C16.7123 6.31305 16.9966 6.80746 17.2247 7.3279L15.7295 8.60696L15.8596 9.40563ZM10.329 6.60529C8.38336 6.60529 6.80604 8.18261 6.80604 10.1282C6.80604 12.0739 8.38336 13.6512 10.329 13.6512C12.2746 13.6512 13.8519 12.0739 13.8519 10.1282C13.8519 8.18261 12.2746 6.60529 10.329 6.60529ZM11.9143 11.7136C11.7064 11.9221 11.4593 12.0874 11.1872 12.2001C10.9151 12.3128 10.6235 12.3706 10.329 12.3701C9.73049 12.3701 9.16802 12.1359 8.74366 11.7136C8.53513 11.5056 8.36978 11.2585 8.2571 10.9865C8.14443 10.7144 8.08666 10.4227 8.08711 10.1282C8.08711 9.52974 8.32131 8.96727 8.74366 8.54291C9.16802 8.11856 9.73049 7.88636 10.329 7.88636C10.9275 7.88636 11.49 8.11856 11.9143 8.54291C12.1228 8.75084 12.2882 8.99795 12.4009 9.27002C12.5135 9.54209 12.5713 9.83376 12.5709 10.1282C12.5709 10.7267 12.3367 11.2892 11.9143 11.7136Z" fill="#828282"/>
</svg>
