<svg width="21" height="21" viewBox="0 0 21 21" fill="none" xmlns="http://www.w3.org/2000/svg">
<g clip-path="url(#clip0_2468_851)">
<path d="M9.47548 20.3452V17.2706C5.19671 17.0485 1.78906 13.4957 1.78906 9.16569C1.78906 4.69048 5.4273 1.05225 9.90251 1.05225C14.3777 1.05225 18.0159 4.69048 18.0159 9.16569C18.0159 13.3932 15.078 17.6464 10.6968 19.7559L9.47548 20.3452ZM9.90251 2.76034C6.36675 2.76034 3.49716 5.62994 3.49716 9.16569C3.49716 12.7014 6.36675 15.571 9.90251 15.571H11.1836V17.5353C14.2923 15.571 16.3079 12.3427 16.3079 9.16569C16.3079 5.62994 13.4383 2.76034 9.90251 2.76034ZM9.04846 12.5819H10.7566V14.29H9.04846V12.5819ZM10.7566 11.3008H9.04846C9.04846 8.52515 11.6106 8.73867 11.6106 7.03057C11.6106 6.09112 10.842 5.32248 9.90251 5.32248C8.96305 5.32248 8.19441 6.09112 8.19441 7.03057H6.48632C6.48632 5.14313 8.01506 3.61439 9.90251 3.61439C11.7899 3.61439 13.3187 5.14313 13.3187 7.03057C13.3187 9.16569 10.7566 9.3792 10.7566 11.3008Z" fill="#828282"/>
</g>
<defs>
<clipPath id="clip0_2468_851">
<rect width="20.4971" height="20.4971" fill="white" transform="translate(0.0810547 0.198242)"/>
</clipPath>
</defs>
</svg>
